<svg xmlns="http://www.w3.org/2000/svg" version="1.1" xmlns:xlink="http://www.w3.org/1999/xlink" xmlns:svgjs="http://svgjs.dev/svgjs" viewBox="0 0 12.368240610372213 8.200365639580834"><g transform="matrix(1,0,0,1,0.8356992846782942,5.281053854902541)"><g><path d=" M 0.195 1.0680000000000003 L 0.195 0.018000000000000238 L 0.54 0.018000000000000238 Q 0.6645 0.018000000000000238 0.768 0.05775000000000019 Q 0.8715 0.09750000000000025 0.94575 0.16725000000000023 Q 1.02 0.2370000000000002 1.06125 0.3330000000000003 Q 1.1025 0.42900000000000027 1.1025 0.5400000000000003 Q 1.1025 0.6555000000000002 1.05975 0.7522500000000003 Q 1.0170000000000001 0.8490000000000003 0.94275 0.9195000000000003 Q 0.8685 0.9900000000000003 0.7695 1.0290000000000004 Q 0.6705 1.0680000000000003 0.558 1.0680000000000003 L 0.195 1.0680000000000003 M 0.3315 1.0020000000000002 L 0.4965 1.0020000000000002 Q 0.6195 1.0020000000000002 0.70575 0.9607500000000003 Q 0.792 0.9195000000000003 0.8475 0.8535000000000003 Q 0.903 0.7875000000000003 0.9285 0.7057500000000003 Q 0.9540000000000001 0.6240000000000003 0.9540000000000001 0.5430000000000003 Q 0.9540000000000001 0.4530000000000003 0.924 0.36975000000000025 Q 0.894 0.2865000000000003 0.83625 0.22275000000000023 Q 0.7785 0.15900000000000025 0.6930000000000001 0.12150000000000027 Q 0.6075 0.0840000000000003 0.4965 0.0840000000000003 L 0.3315 0.0840000000000003 L 0.3315 1.0020000000000002 M 1.90952197265625 0.7590000000000003 L 2.0535219726562497 1.0680000000000003 L 2.19902197265625 1.0680000000000003 L 1.71002197265625 0.018000000000000238 L 1.6350219726562498 0.018000000000000238 L 1.1910219726562499 1.0680000000000003 L 1.26002197265625 1.0680000000000003 L 1.39202197265625 0.7590000000000003 L 1.90952197265625 0.7590000000000003 M 1.87802197265625 0.6915000000000002 L 1.42052197265625 0.6915000000000002 L 1.6365219726562499 0.18600000000000028 L 1.6425219726562499 0.18600000000000028 L 1.87802197265625 0.6915000000000002 M 2.631021240234375 1.0680000000000003 L 2.631021240234375 0.10050000000000026 L 3.033021240234375 0.10050000000000026 L 3.033021240234375 0.018000000000000238 L 2.0925212402343747 0.018000000000000238 L 2.0925212402343747 0.10050000000000026 L 2.494521240234375 0.10050000000000026 L 2.494521240234375 1.0680000000000003 L 2.631021240234375 1.0680000000000003 M 3.645016845703125 0.7590000000000003 L 3.7890168457031246 1.0680000000000003 L 3.9345168457031248 1.0680000000000003 L 3.445516845703125 0.018000000000000238 L 3.3705168457031247 0.018000000000000238 L 2.9265168457031248 1.0680000000000003 L 2.9955168457031247 1.0680000000000003 L 3.127516845703125 0.7590000000000003 L 3.645016845703125 0.7590000000000003 M 3.613516845703125 0.6915000000000002 L 3.156016845703125 0.6915000000000002 L 3.3720168457031248 0.18600000000000028 L 3.378016845703125 0.18600000000000028 L 3.613516845703125 0.6915000000000002 M 4.2180087890625 0.018000000000000238 L 4.2180087890625 1.0680000000000003 L 4.3545087890625 1.0680000000000003 L 4.3545087890625 0.018000000000000238 L 4.2180087890625 0.018000000000000238 M 5.60552490234375 1.2000000000000002 L 5.71952490234375 1.1595000000000002 L 5.57702490234375 1.0110000000000003 Q 5.65052490234375 0.9675000000000002 5.70302490234375 0.9097500000000003 Q 5.755524902343749 0.8520000000000003 5.78852490234375 0.7890000000000003 Q 5.82152490234375 0.7260000000000002 5.83652490234375 0.6622500000000002 Q 5.8515249023437494 0.5985000000000003 5.8515249023437494 0.5415000000000003 Q 5.8515249023437494 0.4560000000000003 5.81777490234375 0.36075000000000024 Q 5.7840249023437496 0.2655000000000003 5.7127749023437495 0.18525000000000025 Q 5.6415249023437495 0.10500000000000032 5.53127490234375 0.05250000000000021 Q 5.42102490234375 2.220446049250313e-16 5.2665249023437495 2.220446049250313e-16 Q 5.11352490234375 2.220446049250313e-16 5.004774902343749 0.05250000000000021 Q 4.89602490234375 0.10500000000000032 4.82627490234375 0.18450000000000022 Q 4.75652490234375 0.26400000000000023 4.723524902343749 0.3600000000000003 Q 4.69052490234375 0.4560000000000003 4.69052490234375 0.5415000000000003 Q 4.69052490234375 0.6525000000000003 4.73252490234375 0.7515000000000003 Q 4.7745249023437495 0.8505000000000003 4.85102490234375 0.9247500000000003 Q 4.92752490234375 0.9990000000000003 5.0332749023437495 1.0425000000000002 Q 5.13902490234375 1.0860000000000003 5.2665249023437495 1.0860000000000003 Q 5.31752490234375 1.0860000000000003 5.36702490234375 1.0792500000000003 Q 5.41652490234375 1.0725000000000002 5.46452490234375 1.0560000000000003 L 5.60552490234375 1.2000000000000002 M 5.39852490234375 0.8235000000000003 L 5.30402490234375 0.8850000000000002 L 5.41052490234375 0.9945000000000003 Q 5.37152490234375 1.0095000000000003 5.332524902343749 1.0147500000000003 Q 5.29352490234375 1.0200000000000002 5.25302490234375 1.0200000000000002 Q 5.170524902343749 1.0200000000000002 5.09552490234375 0.9877500000000002 Q 5.02052490234375 0.9555000000000002 4.9635249023437495 0.8932500000000003 Q 4.90652490234375 0.8310000000000003 4.87277490234375 0.7425000000000003 Q 4.83902490234375 0.6540000000000002 4.83902490234375 0.5415000000000003 Q 4.83902490234375 0.4350000000000003 4.87277490234375 0.3472500000000003 Q 4.90652490234375 0.2595000000000003 4.96427490234375 0.19725000000000026 Q 5.02202490234375 0.13500000000000023 5.100024902343749 0.10050000000000026 Q 5.17802490234375 0.06600000000000028 5.2665249023437495 0.06600000000000028 Q 5.358024902343749 0.06600000000000028 5.43752490234375 0.10050000000000026 Q 5.51702490234375 0.13500000000000023 5.57552490234375 0.19725000000000026 Q 5.63402490234375 0.2595000000000003 5.66777490234375 0.3472500000000003 Q 5.70152490234375 0.4350000000000003 5.70152490234375 0.5415000000000003 Q 5.70152490234375 0.5700000000000003 5.69777490234375 0.6157500000000002 Q 5.69402490234375 0.6615000000000002 5.67602490234375 0.7162500000000003 Q 5.658024902343749 0.7710000000000004 5.6197749023437495 0.8295000000000002 Q 5.58152490234375 0.8880000000000003 5.51252490234375 0.9420000000000003 L 5.39852490234375 0.8235000000000003" fill="#0e0904" fill-rule="nonzero"></path></g><g><path d=" M 0.3645 1.5856124999999999 Q 0.42675 1.6171125 0.45975 1.6763624999999998 Q 0.49275 1.7356124999999998 0.49275 1.8173624999999998 Q 0.49275 1.8983625 0.45975 1.9572375 Q 0.42675 2.0161124999999998 0.3645 2.0472375 Q 0.30225 2.0783625 0.21525 2.0783625 L 0.06 2.0783625 L 0.06 1.5541125 L 0.21525 1.5541125 Q 0.30225 1.5541125 0.3645 1.5856124999999999 M 0.382125 1.9774874999999998 Q 0.4395 1.9201124999999999 0.4395 1.8173624999999998 Q 0.4395 1.7138624999999998 0.382125 1.6557374999999999 Q 0.32475 1.5976124999999999 0.21525 1.5976124999999999 L 0.1125 1.5976124999999999 L 0.1125 2.0348625 L 0.21525 2.0348625 Q 0.32475 2.0348625 0.382125 1.9774874999999998 M 0.8951202392578125 1.9538624999999998 L 0.6566202392578124 1.9538624999999998 L 0.6108702392578125 2.0783625 L 0.5553702392578125 2.0783625 L 0.7466202392578125 1.5608624999999998 L 0.8058702392578125 1.5608624999999998 L 0.9963702392578124 2.0783625 L 0.9408702392578125 2.0783625 L 0.8951202392578125 1.9538624999999998 M 0.8793702392578124 1.9103625 L 0.7758702392578125 1.6268624999999999 L 0.6723702392578125 1.9103625 L 0.8793702392578124 1.9103625 M 1.3889783935546873 1.5541125 L 1.3889783935546873 1.5976124999999999 L 1.2434783935546874 1.5976124999999999 L 1.2434783935546874 2.0783625 L 1.1909783935546874 2.0783625 L 1.1909783935546874 1.5976124999999999 L 1.0447283935546874 1.5976124999999999 L 1.0447283935546874 1.5541125 L 1.3889783935546873 1.5541125 M 1.7778680419921873 1.9538624999999998 L 1.5393680419921874 1.9538624999999998 L 1.4936180419921872 2.0783625 L 1.4381180419921873 2.0783625 L 1.6293680419921872 1.5608624999999998 L 1.6886180419921872 1.5608624999999998 L 1.8791180419921873 2.0783625 L 1.8236180419921872 2.0783625 L 1.7778680419921873 1.9538624999999998 M 1.7621180419921874 1.9103625 L 1.6586180419921872 1.6268624999999999 L 1.5551180419921873 1.9103625 L 1.7621180419921874 1.9103625 M 2.24021630859375 2.0656125 Q 2.2008413085937497 2.0476125 2.1783413085937497 2.0153624999999997 Q 2.15584130859375 1.9831124999999998 2.1543413085937497 1.9433624999999999 L 2.20984130859375 1.9433624999999999 Q 2.2135913085937498 1.9816124999999998 2.24359130859375 2.0104875 Q 2.27359130859375 2.0393624999999997 2.3313413085937498 2.0393624999999997 Q 2.38459130859375 2.0393624999999997 2.41571630859375 2.0119875 Q 2.4468413085937497 1.9846125 2.4468413085937497 1.9426124999999999 Q 2.4468413085937497 1.9088625 2.42959130859375 1.8882374999999998 Q 2.4123413085937497 1.8676125 2.38684130859375 1.8574875 Q 2.36134130859375 1.8473624999999998 2.31634130859375 1.8353625 Q 2.26384130859375 1.8211125 2.23309130859375 1.8076124999999998 Q 2.2023413085937498 1.7941124999999998 2.18059130859375 1.7656124999999998 Q 2.15884130859375 1.7371124999999998 2.15884130859375 1.6883624999999998 Q 2.15884130859375 1.6478625 2.17984130859375 1.6159875 Q 2.2008413085937497 1.5841124999999998 2.23909130859375 1.5661125 Q 2.27734130859375 1.5481124999999998 2.32684130859375 1.5481124999999998 Q 2.3995913085937497 1.5481124999999998 2.44421630859375 1.5837374999999998 Q 2.48884130859375 1.6193624999999998 2.49559130859375 1.6756125 L 2.43859130859375 1.6756125 Q 2.43334130859375 1.6433624999999998 2.40334130859375 1.6182374999999998 Q 2.37334130859375 1.5931125 2.32234130859375 1.5931125 Q 2.27509130859375 1.5931125 2.24359130859375 1.6182374999999998 Q 2.2120913085937497 1.6433624999999998 2.2120913085937497 1.6868625 Q 2.2120913085937497 1.7198624999999998 2.22934130859375 1.7401125 Q 2.24659130859375 1.7603624999999998 2.2724663085937498 1.7708624999999998 Q 2.29834130859375 1.7813625 2.3425913085937498 1.7933624999999997 Q 2.39359130859375 1.8076124999999998 2.4250913085937498 1.8214875 Q 2.45659130859375 1.8353625 2.47834130859375 1.8638625 Q 2.50009130859375 1.8923625 2.50009130859375 1.9403625 Q 2.50009130859375 1.9771124999999998 2.48059130859375 2.0101125 Q 2.46109130859375 2.0431125 2.4228413085937497 2.0633624999999998 Q 2.38459130859375 2.0836125 2.3313413085937498 2.0836125 Q 2.27959130859375 2.0836125 2.24021630859375 2.0656125 M 2.612982421875 1.6774874999999998 Q 2.646732421875 1.6163625 2.705232421875 1.5822375 Q 2.763732421875 1.5481124999999998 2.835732421875 1.5481124999999998 Q 2.923482421875 1.5481124999999998 2.986107421875 1.5897374999999998 Q 3.048732421875 1.6313624999999998 3.0772324218750002 1.7071124999999998 L 3.015732421875 1.7071124999999998 Q 2.993232421875 1.6538624999999998 2.9471074218749997 1.6238625 Q 2.9009824218749998 1.5938625 2.835732421875 1.5938625 Q 2.777982421875 1.5938625 2.731857421875 1.6208624999999999 Q 2.685732421875 1.6478625 2.659482421875 1.6984875 Q 2.633232421875 1.7491124999999998 2.633232421875 1.8158625 Q 2.633232421875 1.8826124999999998 2.659482421875 1.9328625 Q 2.685732421875 1.9831124999999998 2.731857421875 2.0101125 Q 2.777982421875 2.0371125 2.835732421875 2.0371125 Q 2.9009824218749998 2.0371125 2.9471074218749997 2.0074875 Q 2.993232421875 1.9778624999999999 3.015732421875 1.9253624999999999 L 3.0772324218750002 1.9253624999999999 Q 3.048732421875 2.0003625 2.985732421875 2.0416125 Q 2.922732421875 2.0828625 2.835732421875 2.0828625 Q 2.763732421875 2.0828625 2.705232421875 2.0487375 Q 2.646732421875 2.0146124999999997 2.612982421875 1.9538624999999998 Q 2.579232421875 1.8931125 2.579232421875 1.8158625 Q 2.579232421875 1.7386125 2.612982421875 1.6774874999999998 M 3.2358544921874994 1.5541125 L 3.2358544921874994 2.0783625 L 3.1833544921874997 2.0783625 L 3.1833544921874997 1.5541125 L 3.2358544921874994 1.5541125 M 3.4094824218749995 1.5968624999999999 L 3.4094824218749995 1.7926125 L 3.608232421875 1.7926125 L 3.608232421875 1.8361124999999998 L 3.4094824218749995 1.8361124999999998 L 3.4094824218749995 2.0348625 L 3.630732421875 2.0348625 L 3.630732421875 2.0783625 L 3.3569824218749997 2.0783625 L 3.3569824218749997 1.5533625 L 3.630732421875 1.5533625 L 3.630732421875 1.5968624999999999 L 3.4094824218749995 1.5968624999999999 M 4.131350463867188 2.0783625 L 4.078850463867187 2.0783625 L 3.788600463867187 1.6373624999999998 L 3.788600463867187 2.0783625 L 3.7361004638671873 2.0783625 L 3.7361004638671873 1.5541125 L 3.788600463867187 1.5541125 L 4.078850463867187 1.9943624999999998 L 4.078850463867187 1.5541125 L 4.131350463867188 1.5541125 L 4.131350463867188 2.0783625 M 4.2622060546875 1.6774874999999998 Q 4.2959560546875 1.6163625 4.3544560546875 1.5822375 Q 4.4129560546875 1.5481124999999998 4.484956054687499 1.5481124999999998 Q 4.5727060546875 1.5481124999999998 4.6353310546875 1.5897374999999998 Q 4.6979560546875 1.6313624999999998 4.7264560546875 1.7071124999999998 L 4.6649560546875 1.7071124999999998 Q 4.6424560546875 1.6538624999999998 4.5963310546875 1.6238625 Q 4.5502060546875 1.5938625 4.484956054687499 1.5938625 Q 4.4272060546875 1.5938625 4.3810810546875 1.6208624999999999 Q 4.3349560546875 1.6478625 4.3087060546875 1.6984875 Q 4.2824560546875 1.7491124999999998 4.2824560546875 1.8158625 Q 4.2824560546875 1.8826124999999998 4.3087060546875 1.9328625 Q 4.3349560546875 1.9831124999999998 4.3810810546875 2.0101125 Q 4.4272060546875 2.0371125 4.484956054687499 2.0371125 Q 4.5502060546875 2.0371125 4.5963310546875 2.0074875 Q 4.6424560546875 1.9778624999999999 4.6649560546875 1.9253624999999999 L 4.7264560546875 1.9253624999999999 Q 4.6979560546875 2.0003625 4.6349560546875 2.0416125 Q 4.5719560546875 2.0828625 4.484956054687499 2.0828625 Q 4.4129560546875 2.0828625 4.3544560546875 2.0487375 Q 4.2959560546875 2.0146124999999997 4.2622060546875 1.9538624999999998 Q 4.228456054687499 1.8931125 4.228456054687499 1.8158625 Q 4.228456054687499 1.7386125 4.2622060546875 1.6774874999999998 M 4.885078125 1.5968624999999999 L 4.885078125 1.7926125 L 5.083828125 1.7926125 L 5.083828125 1.8361124999999998 L 4.885078125 1.8361124999999998 L 4.885078125 2.0348625 L 5.106328125 2.0348625 L 5.106328125 2.0783625 L 4.8325781249999995 2.0783625 L 4.8325781249999995 1.5533625 L 5.106328125 1.5533625 L 5.106328125 1.5968624999999999 L 4.885078125 1.5968624999999999 M 5.428811279296875 1.6774874999999998 Q 5.462561279296875 1.6163625 5.521061279296875 1.5822375 Q 5.579561279296875 1.5481124999999998 5.651561279296875 1.5481124999999998 Q 5.739311279296875 1.5481124999999998 5.801936279296875 1.5897374999999998 Q 5.8645612792968755 1.6313624999999998 5.893061279296875 1.7071124999999998 L 5.831561279296875 1.7071124999999998 Q 5.809061279296875 1.6538624999999998 5.762936279296875 1.6238625 Q 5.716811279296875 1.5938625 5.651561279296875 1.5938625 Q 5.593811279296875 1.5938625 5.547686279296875 1.6208624999999999 Q 5.501561279296875 1.6478625 5.475311279296875 1.6984875 Q 5.449061279296875 1.7491124999999998 5.449061279296875 1.8158625 Q 5.449061279296875 1.8826124999999998 5.475311279296875 1.9328625 Q 5.501561279296875 1.9831124999999998 5.547686279296875 2.0101125 Q 5.593811279296875 2.0371125 5.651561279296875 2.0371125 Q 5.716811279296875 2.0371125 5.762936279296875 2.0074875 Q 5.809061279296875 1.9778624999999999 5.831561279296875 1.9253624999999999 L 5.893061279296875 1.9253624999999999 Q 5.8645612792968755 2.0003625 5.801561279296875 2.0416125 Q 5.738561279296875 2.0828625 5.651561279296875 2.0828625 Q 5.579561279296875 2.0828625 5.521061279296875 2.0487375 Q 5.462561279296875 2.0146124999999997 5.428811279296875 1.9538624999999998 Q 5.395061279296875 1.8931125 5.395061279296875 1.8158625 Q 5.395061279296875 1.7386125 5.428811279296875 1.6774874999999998 M 6.102683349609375 2.0494874999999997 Q 6.0434333496093755 2.0153624999999997 6.009308349609375 1.9542374999999998 Q 5.975183349609375 1.8931125 5.975183349609375 1.8158625 Q 5.975183349609375 1.7386125 6.009308349609375 1.6774874999999998 Q 6.0434333496093755 1.6163625 6.102683349609375 1.5822375 Q 6.1619333496093756 1.5481124999999998 6.234683349609375 1.5481124999999998 Q 6.308183349609375 1.5481124999999998 6.367433349609375 1.5822375 Q 6.426683349609375 1.6163625 6.460433349609375 1.6774874999999998 Q 6.494183349609375 1.7386125 6.494183349609375 1.8158625 Q 6.494183349609375 1.8931125 6.460433349609375 1.9542374999999998 Q 6.426683349609375 2.0153624999999997 6.367433349609375 2.0494874999999997 Q 6.308183349609375 2.0836125 6.234683349609375 2.0836125 Q 6.1619333496093756 2.0836125 6.102683349609375 2.0494874999999997 M 6.339683349609375 2.0108625 Q 6.386183349609375 1.9838624999999999 6.413183349609375 1.9332375 Q 6.440183349609375 1.8826124999999998 6.440183349609375 1.8158625 Q 6.440183349609375 1.7491124999999998 6.413183349609375 1.6988625 Q 6.386183349609375 1.6486124999999998 6.339683349609375 1.6216125 Q 6.293183349609375 1.5946124999999998 6.234683349609375 1.5946124999999998 Q 6.176183349609375 1.5946124999999998 6.129683349609375 1.6216125 Q 6.083183349609375 1.6486124999999998 6.056183349609375 1.6988625 Q 6.029183349609375 1.7491124999999998 6.029183349609375 1.8158625 Q 6.029183349609375 1.8826124999999998 6.056183349609375 1.9332375 Q 6.083183349609375 1.9838624999999999 6.129683349609375 2.0108625 Q 6.176183349609375 2.0378624999999997 6.234683349609375 2.0378624999999997 Q 6.293183349609375 2.0378624999999997 6.339683349609375 2.0108625 M 6.987327026367188 2.0783625 L 6.934827026367188 2.0783625 L 6.6445770263671875 1.6373624999999998 L 6.6445770263671875 2.0783625 L 6.592077026367187 2.0783625 L 6.592077026367187 1.5541125 L 6.6445770263671875 1.5541125 L 6.934827026367188 1.9943624999999998 L 6.934827026367188 1.5541125 L 6.987327026367188 1.5541125 L 6.987327026367188 2.0783625 M 7.176307617187501 2.0656125 Q 7.1369326171875 2.0476125 7.1144326171875 2.0153624999999997 Q 7.0919326171875 1.9831124999999998 7.0904326171875 1.9433624999999999 L 7.1459326171875 1.9433624999999999 Q 7.1496826171875005 1.9816124999999998 7.1796826171875 2.0104875 Q 7.2096826171875 2.0393624999999997 7.2674326171875006 2.0393624999999997 Q 7.3206826171875 2.0393624999999997 7.3518076171875 2.0119875 Q 7.3829326171875005 1.9846125 7.3829326171875005 1.9426124999999999 Q 7.3829326171875005 1.9088625 7.365682617187501 1.8882374999999998 Q 7.3484326171875 1.8676125 7.3229326171875 1.8574875 Q 7.2974326171875 1.8473624999999998 7.2524326171875 1.8353625 Q 7.199932617187501 1.8211125 7.1691826171875 1.8076124999999998 Q 7.1384326171875 1.7941124999999998 7.1166826171875 1.7656124999999998 Q 7.0949326171875 1.7371124999999998 7.0949326171875 1.6883624999999998 Q 7.0949326171875 1.6478625 7.1159326171875 1.6159875 Q 7.1369326171875 1.5841124999999998 7.175182617187501 1.5661125 Q 7.2134326171875 1.5481124999999998 7.2629326171875 1.5481124999999998 Q 7.3356826171875005 1.5481124999999998 7.3803076171875 1.5837374999999998 Q 7.4249326171875 1.6193624999999998 7.431682617187501 1.6756125 L 7.3746826171875 1.6756125 Q 7.3694326171875 1.6433624999999998 7.339432617187501 1.6182374999999998 Q 7.3094326171875 1.5931125 7.2584326171875 1.5931125 Q 7.2111826171875 1.5931125 7.1796826171875 1.6182374999999998 Q 7.1481826171875005 1.6433624999999998 7.1481826171875005 1.6868625 Q 7.1481826171875005 1.7198624999999998 7.1654326171875 1.7401125 Q 7.1826826171875 1.7603624999999998 7.2085576171875 1.7708624999999998 Q 7.2344326171875 1.7813625 7.2786826171875 1.7933624999999997 Q 7.3296826171875 1.8076124999999998 7.3611826171875006 1.8214875 Q 7.3926826171875 1.8353625 7.4144326171875 1.8638625 Q 7.4361826171875 1.8923625 7.4361826171875 1.9403625 Q 7.4361826171875 1.9771124999999998 7.4166826171875 2.0101125 Q 7.3971826171875 2.0431125 7.3589326171875005 2.0633624999999998 Q 7.3206826171875 2.0836125 7.2674326171875006 2.0836125 Q 7.2156826171875 2.0836125 7.176307617187501 2.0656125 M 7.58957373046875 1.5541125 L 7.58957373046875 1.8841124999999999 Q 7.58957373046875 1.9621125 7.626698730468751 1.9996124999999998 Q 7.66382373046875 2.0371125 7.72832373046875 2.0371125 Q 7.792823730468751 2.0371125 7.82919873046875 1.9999874999999998 Q 7.86557373046875 1.9628625 7.86557373046875 1.8841124999999999 L 7.86557373046875 1.5541125 L 7.91807373046875 1.5541125 L 7.91807373046875 1.8833624999999998 Q 7.91807373046875 1.9831124999999998 7.865198730468751 2.0333625 Q 7.8123237304687505 2.0836125 7.72757373046875 2.0836125 Q 7.64282373046875 2.0836125 7.58994873046875 2.0333625 Q 7.537073730468751 1.9831124999999998 7.537073730468751 1.8833624999999998 L 7.537073730468751 1.5541125 L 7.58957373046875 1.5541125 M 8.089456787109375 2.0356125 L 8.277706787109375 2.0356125 L 8.277706787109375 2.0783625 L 8.036956787109375 2.0783625 L 8.036956787109375 1.5541125 L 8.089456787109375 1.5541125 L 8.089456787109375 2.0356125 M 8.66134716796875 1.5541125 L 8.66134716796875 1.5976124999999999 L 8.515847167968749 1.5976124999999999 L 8.515847167968749 2.0783625 L 8.463347167968749 2.0783625 L 8.463347167968749 1.5976124999999999 L 8.31709716796875 1.5976124999999999 L 8.31709716796875 1.5541125 L 8.66134716796875 1.5541125 M 9.05023681640625 1.9538624999999998 L 8.811736816406249 1.9538624999999998 L 8.765986816406249 2.0783625 L 8.710486816406249 2.0783625 L 8.901736816406249 1.5608624999999998 L 8.96098681640625 1.5608624999999998 L 9.15148681640625 2.0783625 L 9.09598681640625 2.0783625 L 9.05023681640625 1.9538624999999998 M 9.03448681640625 1.9103625 L 8.93098681640625 1.6268624999999999 L 8.82748681640625 1.9103625 L 9.03448681640625 1.9103625 M 9.632594970703124 2.0783625 L 9.580094970703124 2.0783625 L 9.289844970703125 1.6373624999999998 L 9.289844970703125 2.0783625 L 9.237344970703125 2.0783625 L 9.237344970703125 1.5541125 L 9.289844970703125 1.5541125 L 9.580094970703124 1.9943624999999998 L 9.580094970703124 1.5541125 L 9.632594970703124 1.5541125 L 9.632594970703124 2.0783625 M 9.763450561523438 1.6774874999999998 Q 9.797200561523438 1.6163625 9.855700561523438 1.5822375 Q 9.914200561523437 1.5481124999999998 9.986200561523438 1.5481124999999998 Q 10.073950561523437 1.5481124999999998 10.136575561523438 1.5897374999999998 Q 10.199200561523437 1.6313624999999998 10.227700561523438 1.7071124999999998 L 10.166200561523437 1.7071124999999998 Q 10.143700561523437 1.6538624999999998 10.097575561523437 1.6238625 Q 10.051450561523437 1.5938625 9.986200561523438 1.5938625 Q 9.928450561523437 1.5938625 9.882325561523437 1.6208624999999999 Q 9.836200561523437 1.6478625 9.809950561523438 1.6984875 Q 9.783700561523437 1.7491124999999998 9.783700561523437 1.8158625 Q 9.783700561523437 1.8826124999999998 9.809950561523438 1.9328625 Q 9.836200561523437 1.9831124999999998 9.882325561523437 2.0101125 Q 9.928450561523437 2.0371125 9.986200561523438 2.0371125 Q 10.051450561523437 2.0371125 10.097575561523437 2.0074875 Q 10.143700561523437 1.9778624999999999 10.166200561523437 1.9253624999999999 L 10.227700561523438 1.9253624999999999 Q 10.199200561523437 2.0003625 10.136200561523438 2.0416125 Q 10.073200561523437 2.0828625 9.986200561523438 2.0828625 Q 9.914200561523437 2.0828625 9.855700561523438 2.0487375 Q 9.797200561523438 2.0146124999999997 9.763450561523438 1.9538624999999998 Q 9.729700561523437 1.8931125 9.729700561523437 1.8158625 Q 9.729700561523437 1.7386125 9.763450561523438 1.6774874999999998 M 10.680322631835937 1.5541125 L 10.512322631835938 1.8743625 L 10.512322631835938 2.0783625 L 10.459822631835937 2.0783625 L 10.459822631835937 1.8743625 L 10.290322631835938 1.5541125 L 10.349572631835937 1.5541125 L 10.486072631835937 1.8263624999999999 L 10.621822631835938 1.5541125 L 10.680322631835937 1.5541125" fill="#8c1627" fill-rule="nonzero"></path></g><g clip-path="url(#SvgjsClipPath1001)"><g clip-path="url(#SvgjsClipPath1000571a446e-3846-49cf-ad73-e6de3e33cad2)"><path d=" M 2.96063020580673 -2.438773599136941 L 2.96063020580673 -2.18333461048625 L 2.631944856554998 -2.18333461048625 L 2.631944856554998 -2.5120199597379758 L 2.96063020580673 -2.5120199597379758 L 2.96063020580673 -2.438773599136941 Z M 1.505551243950781 -3.1269200794055285 L 1.505551243950781 -2.9422653888146724 L 1.2722708181709992 -2.9422653888146724 L 1.2722708181709992 -3.174930298959148 L 1.504935728315469 -3.174930298959148 L 1.504935728315469 -3.1287666263114353 Z M 1.174403832157848 -3.434677897056952 L 1.174403832157848 -3.2721817693370046 L 0.9645130005195696 -3.2721817693370046 L 0.9645130005195696 -3.480841569704671 L 1.1731728008872357 -3.480841569704671 L 1.1731728008872357 -3.434677897056952 Z M 1.6581991215058893 -2.8616328405899987 L 1.9136381101565743 -2.8616328405899987 L 1.9136381101565743 -2.5329474913382723 L 1.5849527609048542 -2.5329474913382723 L 1.5849527609048542 -2.8616328405899987 Z M 2.737198030191787 -1.7537046970448658 L 2.92185272078265 -1.7537046970448658 L 2.92185272078265 -1.521039786900384 L 2.689803326273468 -1.521039786900384 L 2.689803326273468 -1.7537046970448658 Z M 3.0677299263494318 -1.4225572852519326 L 3.2308415697046797 -1.4225572852519326 L 3.2308415697046797 -1.2138974848842667 L 3.0221817693370134 -1.2138974848842667 L 3.0221817693370134 -1.4225572852519326 Z M 2.6116328405900076 -2.087929687014318 L 2.6116328405900076 -1.8324906983636269 L 2.2829474913382874 -1.8324906983636269 L 2.2829474913382874 -2.161176047615347 L 2.6116328405900076 -2.161176047615347 L 2.6116328405900076 -2.0873141713790053 Z M 1.5037046970448804 -1.707541024397159 L 1.5037046970448804 -1.5228863338063023 L 1.2722708181709992 -1.5228863338063023 L 1.2722708181709992 -1.755551243950784 L 1.504935728315469 -1.755551243950784 L 1.504935728315469 -1.7093875713030657 Z M 1.1725572852519475 -1.3763936126042262 L 1.1725572852519475 -1.2138974848842725 L 0.9645130005195696 -1.2138974848842725 L 0.9645130005195696 -1.4225572852519326 L 1.1731728008872357 -1.4225572852519326 L 1.1731728008872357 -1.3763936126042142 Z M 1.8385452026496265 -1.8324906983636384 L 1.5831062139989416 -1.8324906983636384 L 1.5831062139989416 -2.161176047615347 L 1.9117915632506737 -2.161176047615347 L 1.9117915632506737 -1.8318751827283264 Z M 2.875689048134943 -2.940418841908772 L 2.6910343575440807 -2.940418841908772 L 2.6910343575440807 -3.1730837520532535 L 2.923083752053262 -3.1730837520532535 L 2.923083752053262 -2.940418841908772 Z M 3.183446865786361 -3.271566253701705 L 3.020950738066413 -3.271566253701705 L 3.020950738066413 -3.480226054069371 L 3.229610538434079 -3.480226054069371 L 3.229610538434079 -3.271566253701705 Z M 2.610401809319407 -2.7877709643536632 L 2.610401809319407 -2.5323319757029727 L 2.281716460067687 -2.5323319757029727 L 2.281716460067687 -2.8610173249546986 L 2.610401809319407 -2.8610173249546986 L 2.610401809319407 -2.7877709643536632 Z M 3.6413904984516856 -1.1320339053889867 L 3.5109011837674804 -1.1320339053889867 L 3.5109011837674804 -1.3086868927209108 L 3.6875541710994044 -1.3086868927209108 L 3.6875541710994044 -1.1320339053889867 Z M 3.9946964731155217 -1.7180047901973046 L 3.8642071584313165 -1.7180047901973046 L 3.8642071584313165 -1.8946577775292281 L 4.04086014576324 -1.8946577775292281 L 4.04086014576324 -1.7180047901973046 Z M 4.149190897576543 -2.2590430336285157 L 4.018086067257037 -2.2590430336285157 L 4.018086067257037 -2.4356960209604397 L 4.194739054588961 -2.4356960209604397 L 4.194739054588961 -2.2590430336285157 Z M 3.9946964731155217 -2.8006967926950215 L 3.8642071584313165 -2.8006967926950215 L 3.8642071584313165 -2.9773497800269455 L 4.04086014576324 -2.9773497800269455 L 4.04086014576324 -2.8006967926950215 Z M 3.6413904984516856 -3.386052161868033 L 3.5109011837674804 -3.386052161868033 L 3.5109011837674804 -3.563320664835251 L 3.6875541710994044 -3.563320664835251 L 3.6875541710994044 -3.386052161868033 Z M 3.3120896335646655 -0.8882897138090593 L 3.3120896335646655 -0.757184883489554 L 3.1354366462327414 -0.757184883489554 L 3.1354366462327414 -0.9338378708214781 L 3.3120896335646655 -0.9338378708214781 L 3.3120896335646655 -0.8882897138090655 Z M 2.7261187487563476 -0.5343682235099174 L 2.7261187487563476 -0.4038789088257122 L 2.550081277059736 -0.4038789088257122 L 2.550081277059736 -0.58053189615763 L 2.7261187487563476 -0.58053189615763 L 2.7261187487563476 -0.5343682235099174 Z M 2.185080505325136 -0.380489314684203 L 2.185080505325136 -0.24999999999999734 L 2.010889580534425 -0.24999999999999734 L 2.010889580534425 -0.4266529873319209 L 2.187542567866337 -0.4266529873319209 L 2.187542567866337 -0.380489314684203 Z M 1.6440422618939248 -0.5343682235099174 L 1.6440422618939248 -0.4038789088257122 L 1.467389274562001 -0.4038789088257122 L 1.467389274562001 -0.58053189615763 L 1.6440422618939248 -0.58053189615763 L 1.6440422618939248 -0.5343682235099174 Z M 1.0580713770856072 -0.8882897138090593 L 1.0580713770856072 -0.757184883489554 L 0.8814183897536833 -0.757184883489554 L 0.8814183897536833 -0.9338378708214781 L 1.0580713770856072 -0.9338378708214781 L 1.0580713770856072 -0.8882897138090655 Z M 0.552733040501975 -3.563320664835257 L 0.6832223551861804 -3.563320664835257 L 0.6832223551861804 -3.386052161868039 L 0.5065693678542564 -3.386052161868039 L 0.5065693678542564 -3.563320664835257 Z M 0.19881155020282695 -2.9773497800269455 L 0.3299163805223325 -2.9773497800269455 L 0.3299163805223325 -2.8006967926950215 L 0.15326339319040858 -2.8006967926950215 L 0.15326339319040858 -2.9773497800269455 Z M 0.04493264137711817 -2.4356960209604397 L 0.17603747169662373 -2.4356960209604397 L 0.17603747169662373 -2.2590430336285157 L -0.001231031270600423 -2.2590430336285157 L -0.001231031270600423 -2.4356960209604397 Z M 0.19881155020282695 -1.8946577775292281 L 0.3299163805223325 -1.8946577775292281 L 0.3299163805223325 -1.7180047901973046 L 0.15326339319040858 -1.7180047901973046 L 0.15326339319040858 -1.8946577775292281 Z M 0.552733040501975 -1.3086868927209108 L 0.6832223551861804 -1.3086868927209108 L 0.6832223551861804 -1.1320339053889867 L 0.5065693678542564 -1.1320339053889867 L 0.5065693678542564 -1.3086868927209108 Z M 0.8814183897536952 -3.8070648564151903 L 0.8814183897536952 -3.938169686734696 L 1.0580713770856192 -3.938169686734696 L 1.0580713770856192 -3.761516699402772 L 0.8814183897536952 -3.761516699402772 L 0.8814183897536952 -3.8070648564151783 Z M 1.467389274562013 -4.160370831079026 L 1.467389274562013 -4.291475661398532 L 1.6440422618939368 -4.291475661398532 L 1.6440422618939368 -4.114822674066608 L 1.467389274562013 -4.114822674066608 L 1.467389274562013 -4.16037083107902 Z M 2.008427517993224 -4.314249739904741 L 2.008427517993224 -4.4453545702242465 L 2.185080505325148 -4.4453545702242465 L 2.185080505325148 -4.268701582892323 L 2.010889580534425 -4.268701582892323 L 2.010889580534425 -4.315480771175335 Z M 2.550081277059736 -4.160370831079026 L 2.550081277059736 -4.291475661398532 L 2.7261187487563476 -4.291475661398532 L 2.7261187487563476 -4.114822674066608 L 2.550081277059736 -4.114822674066608 L 2.550081277059736 -4.16037083107902 Z M 3.1354366462327414 -3.8070648564151903 L 3.1354366462327414 -3.938169686734696 L 3.3120896335646655 -3.938169686734696 L 3.3120896335646655 -3.761516699402772 L 3.1354366462327414 -3.761516699402772 L 3.1354366462327414 -3.8070648564151783 Z M 0.4622522421124504 -1.8749612771995379 L 0.4622522421124504 -2.038072920554786 L 0.6709120424801165 -2.038072920554786 L 0.6709120424801165 -1.8294131201871195 L 0.4622522421124504 -1.8294131201871195 L 0.4622522421124504 -1.8749612771995263 Z M 0.4622522421124504 -2.6948281034229318 L 0.4622522421124504 -2.8579397467781913 L 0.6709120424801165 -2.8579397467781913 L 0.6709120424801165 -2.6492799464105254 L 0.4622522421124504 -2.6492799464105254 L 0.4622522421124504 -2.6948281034229318 Z M 2.4066661340341664 -3.819990684756548 L 2.4066661340341664 -3.982486812476502 L 2.6153259344018327 -3.982486812476502 L 2.6153259344018327 -3.7738270121088355 L 2.4066661340341664 -3.7738270121088355 L 2.4066661340341664 -3.819990684756548 Z M 1.5867993078107667 -3.819990684756548 L 1.5867993078107667 -3.982486812476502 L 1.7954591081784328 -3.982486812476502 L 1.7954591081784328 -3.7738270121088355 L 1.5867993078107667 -3.7738270121088355 L 1.5867993078107667 -3.819990684756548 Z M 1.745602341718901 -0.7085591483006226 L 1.5824906983636413 -0.7085591483006226 L 1.5824906983636413 -0.9172189486682889 L 1.7911504987313074 -0.9172189486682889 L 1.7911504987313074 -0.7085591483006226 Z M 2.5654691679423007 -0.7085591483006226 L 2.402357524587041 -0.7085591483006226 L 2.402357524587041 -0.9172189486682889 L 2.611017324954707 -0.9172189486682889 L 2.611017324954707 -0.7085591483006226 Z M 3.6912472649112056 -2.653588555857639 L 3.528751137191258 -2.653588555857639 L 3.528751137191258 -2.862248356225305 L 3.737410937558924 -2.862248356225305 L 3.737410937558924 -2.653588555857639 Z M 3.6912472649112056 -1.8343372452695395 L 3.528751137191258 -1.8343372452695395 L 3.528751137191258 -2.0429970456372053 L 3.737410937558924 -2.0429970456372053 L 3.737410937558924 -1.8343372452695395 Z M 3.1957571784924124 -1.8417234328931715 L 3.01110248790155 -1.8417234328931715 L 3.01110248790155 -2.073772827402347 L 3.2437673980460318 -2.073772827402347 L 3.2437673980460318 -1.8417234328931715 Z M 3.4801254020023267 -2.2319603456751813 L 3.2954707114114763 -2.2319603456751813 L 3.2954707114114763 -2.464625255819663 L 3.5281356215559576 -2.464625255819663 L 3.5281356215559576 -2.2319603456751813 Z M 1.7776091547546313 -3.259255940995641 L 1.5929544641637807 -3.259255940995641 L 1.5929544641637807 -3.4919208511401223 L 1.8262348899435625 -3.4919208511401223 L 1.8262348899435625 -3.259255940995641 Z M 2.168461583171947 -3.5436241645055606 L 1.9838068925810965 -3.5436241645055606 L 1.9838068925810965 -3.776289074650043 L 2.2164718027255783 -3.776289074650043 L 2.2164718027255783 -3.5436241645055606 Z M 2.559314011589263 -3.259255940995641 L 2.374659320998412 -3.259255940995641 L 2.374659320998412 -3.4919208511401223 L 2.606708715507582 -3.4919208511401223 L 2.606708715507582 -3.259255940995641 Z M 3.1957571784924244 -2.622812774092485 L 3.011102487901562 -2.622812774092485 L 3.011102487901562 -2.8548621686016604 L 3.2437673980460437 -2.8548621686016604 L 3.2437673980460437 -2.622812774092485 Z M 2.6048621686016813 -1.3917815034867793 L 2.6048621686016813 -1.2071268128959285 L 2.3728127740925116 -1.2071268128959285 L 2.3728127740925116 -1.4391762074050982 L 2.6048621686016813 -1.4391762074050982 L 2.6048621686016813 -1.3936280503926919 Z M 2.2146252558196777 -1.1074132799768592 L 2.2146252558196777 -0.9227585893860084 L 1.981960345675196 -0.9227585893860084 L 1.981960345675196 -1.1548079838951781 L 2.2146252558196777 -1.1548079838951781 L 2.2146252558196777 -1.1092598268827714 Z M 1.186714144863912 -2.809929527224554 L 1.186714144863912 -2.6252748366337038 L 0.9546647503547424 -2.6252748366337038 L 0.9546647503547424 -2.8573242311428735 L 1.186714144863912 -2.8573242311428735 L 1.186714144863912 -2.811776074130467 Z M 0.9029614369892861 -2.417846067536638 L 0.9029614369892861 -2.2331913769457876 L 0.6709120424801165 -2.2331913769457876 L 0.6709120424801165 -2.465856287090263 L 0.9029614369892861 -2.465856287090263 L 0.9029614369892861 -2.419692614442545 Z M 1.187329660499212 -2.0269936391193224 L 1.187329660499212 -1.842338948528472 L 0.9552802659900307 -1.842338948528472 L 0.9552802659900307 -2.0743883430376413 L 1.187329660499212 -2.0743883430376413 L 1.187329660499212 -2.0282246703899287 Z M 1.8262348899435625 -1.3905504722161788 L 1.8262348899435625 -1.2058957816253222 L 1.5935699797990928 -1.2058957816253222 L 1.5935699797990928 -1.4379451761344977 L 1.8262348899435625 -1.4379451761344977 L 1.8262348899435625 -1.3923970191220851 Z M 1.5671028074810645 -2.4369270522310282 L 1.5671028074810645 -2.181488063580343 L 1.2353398800528315 -2.181488063580343 L 1.2353398800528315 -2.5101734128320694 L 1.5646407449398518 -2.5101734128320694 L 1.5646407449398518 -2.4369270522310282 Z M 2.2650975379144977 -1.7383168061622887 L 2.2650975379144977 -1.482877817511604 L 1.9364121886627657 -1.482877817511604 L 1.9364121886627657 -1.8121786823986241 L 2.2650975379144977 -1.8121786823986241 L 2.2650975379144977 -1.738316806162283 Z M 2.2650975379144977 -3.1349217826644673 L 2.2650975379144977 -2.8794827940137764 L 1.9364121886627657 -2.8794827940137764 L 1.9364121886627657 -3.2075526276302027 L 2.2650975379144977 -3.2075526276302027 Z" fill="#8c1627" transform="matrix(1,0,0,1,0,0)" fill-rule="evenodd"></path></g></g></g><defs><clipPath id="SvgjsClipPath1001"><path d=" M 0 -4.4453545702242465 h 4.19597008585955 v 4.1953545702242465 h -4.19597008585955 Z"></path></clipPath><clipPath id="SvgjsClipPath1000571a446e-3846-49cf-ad73-e6de3e33cad2"><path d=" M 0 -4.4453545702242465 L 4.19597008585955 -4.4453545702242465 L 4.19597008585955 -0.25 L 0 -0.25 Z"></path></clipPath></defs></svg>